PathFileType	4	(X/Y/Z)	C:/Users/beibeiliu/ov580/test_trc/User3\sequence.27_training_dense_left.trc
DataRate	CameraRate	NumFrames	NumMarkers	Units	OrigDataRate	OrigDataStartFrame	OrigNumFrames
120	120	11	19	mm	120	173	276
Frame#	Time	ThumbCMC			ThumbMCP			ThumbIP			ThumbTip			IndexMCP			IndexPIP			IndexTip			MiddleMCP			MiddlePIP			MiddleTip			RingMCP			RingPIP			RingTip			PinkyMCP			PinkyPIP			PinkyTip			BackHand1			BackHand2			BackHand3	
		X0	Y0	Z0	X1	Y1	Z1	X2	Y2	Z2	X3	Y3	Z3	X4	Y4	Z4	X5	Y5	Z5	X6	Y6	Z6	X7	Y7	Z7	X8	Y8	Z8	X9	Y9	Z9	X10	Y10	Z10	X11	Y11	Z11	X12	Y12	Z12	X13	Y13	Z13	X14	Y14	Z14	X15	Y15	Z15	X16	Y16	Z16	X17	Y17	Z17	X18	Y18	Z18	
172	1.43333	-241.312	-30.5859	-23.7342	-246.534	-56.8072	-50.8825	-271.482	-71.0521	-66.5476	-294.325	-84.113	-67.5476	-285.929	-20.2555	-83.9194	-296.798	-31.4506	-106.297	-302.603	-42.0588	-127.435	-309.882	-25.5345	-78.4157	-313.79	-36.7467	-105.154	-323.868	-54.9333	-132.776	-312.935	-50.6974	-65.1599	-300.486	-78.067	-59.7424	-283.096	-70.547	-33.4708	-320.016	-60.4611	-39.1528	-296.204	-77.7467	-34.9225	-279.525	-61.1813	-13.29	-303.64	-11.4365	-21.3175	-293.442	-7.74582	10.139	-270.985	-1.96109	-16.4707	
173	1.44167	-245.056	-33.108	-23.4018	-250.385	-59.521	-47.9045	-269.445	-80.4973	-65.8463	-291.971	-89.4575	-61.3702	-288.881	-30.5701	-83.197	-297.266	-44.8482	-109.51	-306.193	-57.7117	-124.189	-309.955	-35.9251	-79.3747	-315.062	-50.27	-106.11	-320.56	-69.0404	-132.069	-311.094	-57.991	-59.868	-300.754	-86.9277	-54.4065	-276.531	-73.8622	-32.1747	-316.528	-68.4616	-39.9849	-293.156	-83.0837	-32.194	-279.113	-65.5995	-10.901	-304.141	-15.3689	-20.259	-293.967	-12.8392	6.17568	-270.397	-4.59712	-23.2653	
174	1.45	-244.759	-35.7349	-23.0453	-248.784	-62.0466	-45.5792	-265.078	-86.4524	-62.1653	-288.328	-93.8659	-55.608	-284.571	-37.9803	-84.1369	-295.373	-57.1497	-105.427	-301.178	-73.2721	-124.91	-308.045	-46.2433	-80.0983	-312.499	-64.4949	-104.634	-315.955	-82.218	-124.946	-310.809	-70.7397	-57.0584	-290.085	-92.6306	-50.6962	-274.924	-76.8203	-26.6867	-313.626	-77.0095	-36.5334	-289.757	-88.8526	-30.0411	-277.109	-69.2228	-9.76772	-309.817	-23.1247	-21.7297	-297.1	-14.9926	6.98973	-272.514	-8.72829	-22.3938	
175	1.45833	-242.074	-34.8523	-18.3403	-240.781	-66.1782	-43.3871	-258.181	-89.3934	-54.0638	-278.776	-106.223	-53.0668	-283.791	-50.2131	-82.0258	-284.156	-64.8264	-103.272	-288.504	-84.8114	-121.966	-303.175	-58.1823	-80.4877	-304.06	-75.484	-99.3572	-302.013	-101.895	-123.196	-302.525	-78.9549	-54.9785	-280.989	-99.1384	-45.5322	-268.246	-82.448	-23.5001	-307.252	-86.5518	-33.5755	-283.648	-94.4351	-23.6866	-270.923	-72.1914	-6.35821	-305.073	-29.1648	-19.6337	-296.118	-18.6725	4.36832	-273.25	-12.3155	-22.3464	
176	1.46667	-240.08	-36.2396	-19.4554	-233.312	-66.7189	-37.583	-245.275	-92.7899	-47.9565	-264.966	-110.359	-46.9169	-274.957	-59.1638	-79.8313	-275.473	-81.4144	-99.6786	-274.148	-97.5766	-114.649	-292.853	-69.3034	-79.0161	-287.467	-88.2014	-97.0239	-278.985	-119.087	-115.855	-292.75	-87.96	-51.1221	-273.172	-107.081	-38.3738	-259.318	-81.1084	-17.5318	-295.139	-90.8424	-32.7087	-272.039	-97.9361	-15.1456	-265.481	-73.9171	-0.862431	-304.872	-37.4183	-21.4235	-298.489	-23.3791	3.51339	-273.699	-16.3229	-26.6379	
177	1.475	-232.884	-32.1294	-15.689	-223.069	-65.0656	-31.7156	-230.412	-91.1553	-40.9496	-252.018	-111.805	-40.4014	-261.246	-66.139	-81.1367	-259.092	-86.8365	-95.4128	-252.62	-109.099	-110.74	-279.623	-75.5327	-74.453	-270.279	-103.247	-93.6094	-254.272	-131.388	-96.6216	-276.436	-93.8553	-50.5702	-258.215	-110.49	-33.9472	-248.954	-82.5835	-12.02	-287.251	-97.1662	-25.9252	-261.881	-101.93	-10.8499	-258.316	-73.7409	4.02265	-300.176	-46.2452	-25.5446	-297.776	-28.5278	5.56995	-272.894	-19.2579	-23.8373	
178	1.48333	-227.034	-29.5366	-11.3495	-216.629	-59.7973	-24.8678	-214.452	-91.2804	-36.6452	-229.769	-112.664	-34.8882	-245.655	-65.949	-74.5205	-241.956	-89.5564	-90.2311	-229.991	-112.257	-105.468	-260.681	-80.6829	-76.863	-245.709	-107.972	-87.1142	-223.155	-132.5	-76.1468	-260.972	-95.7341	-46.8014	-241.312	-110.576	-24.941	-235.351	-82.5322	-7.35006	-268.956	-102.925	-23.7288	-247.739	-101.642	-9.57065	-246.733	-73.815	4.86146	-291.594	-52.4025	-24.3409	-291.617	-31.2765	-1.32117	-265.67	-20.2022	-24.7488	
179	1.49167	-220.188	-24.9168	-5.55506	-200.708	-51.9094	-16.821	-199.543	-84.0887	-28.7118	-210.211	-104.859	-28.2802	-228.782	-68.1575	-74.0824	-218.335	-83.2946	-87.6944	-210.091	-107.878	-95.6495	-241.887	-79.4734	-72.0094	-223.658	-105.042	-80.457	-199.321	-123.82	-57.5476	-245.01	-97.5462	-41.5041	-221.567	-106.383	-24.2633	-223.658	-78.0961	-2.56003	-250.415	-103.269	-22.1983	-230.073	-96.9445	-4.47146	-236.871	-72.3056	9.10133	-279.402	-53.5537	-24.4728	-282.602	-33.4809	-0.139903	-258.417	-21.31	-22.2564	
180	1.5	-211.982	-21.6535	-3.939	-187.824	-45.3481	-11.9693	-179.632	-79.1019	-26.198	-194.537	-102.162	-25.9944	-213.975	-61.1287	-67.8341	-198.313	-82.6764	-84.0163	-181.617	-99.9702	-93.8343	-219.308	-78.5473	-71.9768	-195.827	-102.161	-73.9812	-174.208	-112.154	-44.9757	-221.682	-96.5632	-41.832	-200.865	-100.09	-22.9586	-210.039	-72.8499	-0.112081	-229.83	-97.2738	-24.1305	-213.476	-93.631	-3.47289	-222.793	-69.4493	11.2964	-262.299	-51.7132	-30.2692	-275.393	-37.7406	-6.91073	-248.195	-23.0586	-21.5525	
181	1.50833	-203.948	-17.7192	-1.4676	-173.751	-40.1735	-10.6511	-162.931	-66.537	-19.5165	-173.613	-94.2586	-22.9719	-194.653	-55.8313	-69.0766	-180.475	-71.8145	-78.9303	-157.521	-91.0732	-88.9358	-203.893	-72.9021	-67.9186	-177.621	-90.2638	-72.7188	-153.449	-103.126	-40.7075	-207.158	-88.4245	-39.0912	-183.327	-90.7822	-15.6025	-194.428	-67.8299	1.45285	-216.613	-95.9003	-20.8572	-195.471	-85.2316	-2.27335	-209.556	-63.261	13.3008	-249.166	-51.1926	-28.9957	-264.071	-37.8373	-1.95445	-237.639	-22.611	-24.2836	
182	1.51667	-196.334	-10.6621	4.80981	-163.451	-31.4422	-5.10968	-148.378	-58.931	-15.2777	-153.371	-83.7314	-17.3874	-181.051	-46.5645	-63.0897	-162.583	-61.993	-74.9168	-139.811	-80.4734	-82.9802	-187.051	-65.0992	-65.6982	-157.571	-85.1282	-69.1709	-134.851	-93.7939	-47.2919	-183.227	-79.5385	-37.5465	-165.935	-82.2581	-12.9777	-183.775	-58.4419	6.06179	-195.015	-90.0166	-18.9324	-180.644	-84.7335	3.38369	-196.493	-58.9017	15.0377	-236.091	-52.2324	-24.5562	-252.358	-36.6093	-0.405507	-227.511	-17.756	-19.2479	
